PathFileType	4	(X/Y/Z)	TVC_26_Cal_03_0_static_RCNL2025.trc
DataRate	CameraRate	NumFrames	NumMarkers	Units	OrigDataRate	OrigDataStartFrame	OrigNumFrames
100	100	8	27	mm	100	211	420
Frame#	Time	R_Shoulder			L_Shoulder			C7			J_Notch			R_Elbow			L_Elbow			R_Wrist			L_Wrist			R_Asis			L_Asis			R_Psis			L_Psis			Sacral			Thoracic			Sternum			R_Thigh_Lateral			R_Knee_Lateral			R_Shank_Lateral			R_Ankle_Lateral			R_Heel			R_Toe			L_Thigh_Lateral			L_Knee_Lateral			L_Shank_Lateral			L_Ankle_Lateral			L_Heel			L_Toe		
		X1	Y1	Z1	X2	Y2	Z2	X3	Y3	Z3	X4	Y4	Z4	X5	Y5	Z5	X6	Y6	Z6	X7	Y7	Z7	X8	Y8	Z8	X9	Y9	Z9	X10	Y10	Z10	X11	Y11	Z11	X12	Y12	Z12	X13	Y13	Z13	X14	Y14	Z14	X15	Y15	Z15	X16	Y16	Z16	X17	Y17	Z17	X18	Y18	Z18	X19	Y19	Z19	X20	Y20	Z20	X21	Y21	Z21	X22	Y22	Z22	X23	Y23	Z23	X24	Y24	Z24	X25	Y25	Z25	X26	Y26	Z26	X27	Y27	Z27
211	2.10000000	-187.007126	1354.287964	-121.160851	-111.782692	1385.288452	-433.657288	-226.597183	1416.363281	-287.322021	-91.175781	1309.092041	-256.227570	-201.638000	1027.879761	13.134631	-111.320213	1052.645874	-524.802734	-183.435097	816.071655	42.444321	-103.487923	830.152863	-507.908051	-151.388565	951.363403	-124.719276	-56.152756	958.008667	-396.152222	-319.257507	972.972534	-251.076492	-274.758942	966.135620	-391.906464	-297.008224	969.554077	-321.491478	-293.246399	1140.074707	-326.703796	-40.913998	1076.521362	-265.532104	-228.373230	579.673035	-87.605255	-241.721359	433.997284	-135.117661	-258.796173	283.014648	-84.408386	-269.273590	75.713905	-136.032028	-313.201294	54.338192	-185.060577	-128.976669	39.978798	-150.061798	-89.199631	584.826416	-453.997894	-183.676544	416.313904	-422.086334	-164.149826	267.809784	-458.392365	-195.771774	67.214134	-389.948029	-251.231232	50.634010	-348.045746	-59.995026	39.847847	-350.771149
212	2.11000000	-186.902786	1354.302124	-121.408646	-111.608810	1385.269531	-433.807281	-226.459763	1416.625732	-287.526489	-91.145775	1309.092896	-256.275909	-201.505844	1027.781494	12.969197	-111.300346	1052.553833	-524.911438	-183.264725	816.142303	42.358703	-103.543442	830.060394	-508.023880	-151.219925	951.401855	-124.817886	-56.074299	958.046387	-396.311951	-319.219421	973.033020	-251.241409	-274.670685	966.145935	-391.998962	-296.945053	969.589478	-321.620186	-293.194031	1140.111206	-326.880371	-40.826214	1076.528687	-265.639618	-228.387451	579.794128	-87.658043	-241.692566	434.243164	-135.411041	-258.850555	282.841919	-84.369072	-269.303680	75.894608	-136.003036	-313.235840	54.416569	-185.013794	-128.977982	39.981243	-150.049820	-89.154297	584.902100	-454.010803	-183.631485	416.303070	-422.095276	-164.698730	267.974182	-457.839355	-195.753128	67.170067	-389.913452	-251.232635	50.632168	-348.044128	-59.949253	39.880749	-350.665283
213	2.12000000	-186.852036	1354.406006	-121.450935	-111.448227	1385.250854	-433.920319	-226.314941	1416.413452	-287.686920	-91.041092	1309.083008	-256.456726	-201.443115	1027.875610	12.877629	-111.248856	1052.539307	-524.980591	-183.129631	816.224487	42.269789	-103.509884	830.068695	-508.158447	-151.370193	951.252380	-125.209320	-55.925655	958.006042	-396.332001	-319.157501	972.994446	-251.425873	-274.551239	966.158386	-392.198303	-296.854370	969.576416	-321.812088	-293.157898	1140.164185	-327.050415	-40.824921	1076.582153	-265.855713	-228.437271	579.889282	-87.741737	-241.673386	434.212402	-135.445343	-258.885010	282.769348	-84.371101	-269.416107	75.936234	-136.039719	-313.223633	54.369343	-185.047028	-128.976120	39.980694	-150.061356	-88.950417	584.844543	-454.098938	-183.587784	416.300873	-422.181519	-165.083969	267.822693	-457.732574	-195.659576	67.455978	-390.024841	-251.224548	50.631027	-348.059814	-59.965710	39.850414	-350.695221
214	2.13000000	-186.735092	1354.374756	-121.580719	-111.228577	1385.159058	-434.137512	-226.182877	1416.493408	-287.880280	-90.987854	1309.025879	-256.575165	-201.111237	1027.896606	12.683429	-111.152512	1052.521240	-525.046570	-183.029739	816.441986	42.189359	-103.494732	830.067169	-508.127335	-151.304550	951.416565	-125.352463	-55.828060	957.971130	-396.392944	-319.102448	973.025818	-251.617325	-274.520844	966.036072	-392.316895	-296.811646	969.530945	-321.967110	-293.061798	1140.226318	-327.159210	-40.766754	1076.502441	-266.014130	-228.322601	579.769592	-87.705299	-241.558548	434.144775	-135.372528	-258.885834	282.730042	-84.397865	-269.354492	75.929840	-135.988068	-313.228149	54.332073	-185.026962	-128.968994	39.968906	-150.062637	-88.892029	584.833435	-454.163666	-183.466324	416.232666	-422.250397	-165.050598	267.669861	-457.637054	-195.791489	67.166527	-390.018402	-251.229477	50.603294	-348.054565	-59.919888	39.798466	-350.662231
215	2.14000000	-186.666534	1354.409912	-121.734261	-111.162987	1385.251099	-434.321838	-225.990250	1416.564453	-288.061646	-90.900101	1309.006470	-256.693909	-201.110367	1027.912842	12.716946	-111.066498	1052.461426	-525.181702	-183.004738	816.495850	42.037958	-103.467194	829.910095	-508.226318	-150.992432	951.511536	-125.310303	-55.755188	958.004089	-396.516846	-319.123596	973.017456	-251.833328	-274.477814	966.055054	-392.537842	-296.800705	969.536255	-322.185585	-292.985657	1140.181152	-327.440765	-40.728588	1076.509521	-266.152893	-228.074142	579.674927	-87.449799	-241.573837	434.309723	-135.587097	-258.819214	282.720825	-84.416779	-269.406433	75.922684	-136.041656	-313.204132	54.395058	-185.055893	-128.971954	39.967495	-150.048462	-88.891876	584.894104	-454.429535	-183.489944	416.282776	-422.344086	-164.895157	267.769257	-457.788483	-195.721344	67.389587	-390.001617	-251.268784	50.611973	-348.099060	-59.977840	39.822731	-350.724213
216	2.15000000	-186.978470	1354.433105	-121.710007	-111.033630	1385.187012	-434.451447	-225.867950	1416.591309	-288.344910	-90.845055	1308.984253	-256.818481	-201.114532	1028.019165	12.598312	-111.054947	1052.360229	-525.309265	-182.799164	816.339905	42.053214	-103.462780	829.939331	-508.263245	-151.114105	951.235352	-125.725151	-55.753132	957.924744	-396.536377	-319.041656	972.932983	-252.065231	-274.334534	966.030151	-392.723419	-296.688095	969.481567	-322.394325	-292.915192	1140.195068	-327.662079	-40.661160	1076.465820	-266.182770	-227.798126	579.469910	-87.812325	-241.551926	434.256226	-135.615067	-259.108643	282.506409	-84.431557	-269.394470	75.932724	-136.070374	-313.247925	54.364002	-184.910553	-128.969788	39.948269	-150.083450	-88.761024	584.783142	-454.432373	-183.480682	416.270752	-422.433228	-164.802872	267.700256	-457.875061	-195.774490	67.172531	-390.051147	-251.235168	50.628986	-348.048523	-60.008160	39.841358	-350.794464
217	2.16000000	-186.946594	1354.357666	-121.873512	-110.780342	1385.181030	-434.603027	-225.652679	1416.498047	-288.526459	-90.733574	1308.909302	-257.014374	-200.779343	1028.172852	12.659998	-110.949402	1052.261475	-525.428650	-182.558472	816.464233	41.778212	-103.614113	829.867462	-508.341141	-151.001694	951.373230	-125.846069	-55.680988	957.907227	-396.653595	-319.129120	973.074829	-252.270081	-274.299255	966.169128	-393.015320	-296.714188	969.621979	-322.642700	-292.794189	1140.250000	-327.797821	-40.692387	1076.426025	-266.403656	-227.717316	579.433899	-87.965630	-241.516022	434.187408	-135.692413	-258.813812	282.686157	-84.589790	-269.377625	75.924973	-136.081528	-313.204437	54.340405	-185.052704	-129.024124	40.005753	-150.124710	-88.730896	584.708252	-454.423035	-183.456741	416.273315	-422.472595	-164.787277	267.555573	-457.821228	-195.783417	67.173790	-390.095398	-251.255188	50.593658	-348.112732	-59.966976	39.828705	-350.757690
218	2.17000000	-186.893158	1354.379272	-122.025909	-110.639488	1385.161377	-434.785828	-225.487289	1416.607910	-288.751984	-90.640694	1308.886719	-257.118958	-200.818161	1028.270630	12.312033	-110.817467	1052.296631	-525.443420	-182.526047	816.430023	41.742235	-103.594589	829.771637	-508.439713	-151.120514	951.176453	-126.137520	-55.645046	957.785950	-396.718140	-319.071259	973.093689	-252.492249	-274.228149	966.054260	-393.110046	-296.649704	969.573975	-322.801147	-292.751862	1140.304810	-327.962738	-40.665970	1076.347778	-266.567871	-227.587784	579.429321	-88.066063	-241.329086	434.038452	-135.628983	-258.727264	282.681396	-84.594521	-269.374146	75.922218	-136.082169	-313.157440	54.256016	-185.129211	-128.980850	39.984028	-150.066406	-88.682693	584.621521	-454.513062	-183.433243	416.203949	-422.568817	-164.671097	267.546112	-457.798828	-195.779190	67.117851	-390.088379	-251.257217	50.634178	-348.123840	-60.066544	39.834476	-350.737885
